<?xml version="1.0" encoding="utf-8"?>
<!-- Generator: Adobe Illustrator 25.3.1, SVG Export Plug-In . SVG Version: 6.00 Build 0)  -->
<svg version="1.1" id="Layer_1" xmlns="http://www.w3.org/2000/svg" xmlns:xlink="http://www.w3.org/1999/xlink" x="0px" y="0px"
	 viewBox="0 0 88.8 42.2" style="enable-background:new 0 0 88.8 42.2;" xml:space="preserve">
<style type="text/css">
	.st0{fill:#F7911E;}
	.st1{fill:#FF0303;}
</style>
<g>
	<path class="st0" d="M64.9,24.2c0,1.2,0.6,2.3,1.5,2.9L83.5,39c1.6,1.1,3.7,0.6,4.7-0.9c0.4-0.6,0.6-1.3,0.6-2V6.8
		c0.1-1.9-1.4-3.5-3.3-3.5c-0.7,0-1.4,0.2-2,0.6L66.4,15.6c-1,0.7-1.5,1.8-1.5,2.9V24.2z"/>
	<path d="M2,0h65.1c1.1,0,2,0.9,2,2v38.2c0,1.1-0.9,2-2,2H2c-1.1,0-2-0.9-2-2V2C0,0.9,0.9,0,2,0z"/>
	<path class="st1" d="M44.9,18.5c1.4,0.8,2,2.6,1.1,4.1c-0.3,0.5-0.7,0.9-1.1,1.1l-13.4,7.6c-1.4,0.8-3.3,0.3-4.1-1.1
		c-0.3-0.4-0.4-1-0.4-1.5V13.6c0-1.7,1.3-3,3-3c0.5,0,1,0.1,1.5,0.4L44.9,18.5z"/>
</g>
</svg>
